<svg width="30" height="29" viewBox="0 0 30 29" fill="none" xmlns="http://www.w3.org/2000/svg">
<path d="M14.9983 7.37292C13.0566 7.37292 11.1944 8.12398 9.82137 9.46086C8.44836 10.7977 7.677 12.611 7.677 14.5016C7.677 16.3922 8.44836 18.2054 9.82137 19.5423C11.1944 20.8792 13.0566 21.6303 14.9983 21.6303C16.9401 21.6303 18.8023 20.8792 20.1753 19.5423C21.5483 18.2054 22.3197 16.3922 22.3197 14.5016C22.3197 12.611 21.5483 10.7977 20.1753 9.46086C18.8023 8.12398 16.9401 7.37292 14.9983 7.37292ZM14.9983 19.1312C13.7369 19.1312 12.5271 18.6433 11.6351 17.7748C10.7431 16.9063 10.242 15.7283 10.242 14.5001C10.242 13.2718 10.7431 12.0938 11.6351 11.2253C12.5271 10.3568 13.7369 9.86888 14.9983 9.86888C16.2598 9.86888 17.4696 10.3568 18.3616 11.2253C19.2536 12.0938 19.7547 13.2718 19.7547 14.5001C19.7547 15.7283 19.2536 16.9063 18.3616 17.7748C17.4696 18.6433 16.2598 19.1312 14.9983 19.1312Z" fill="black" fill-opacity="0.5"/>
<path d="M22.6094 8.77269C23.5521 8.77269 24.3163 8.02862 24.3163 7.11077C24.3163 6.19292 23.5521 5.44885 22.6094 5.44885C21.6668 5.44885 20.9026 6.19292 20.9026 7.11077C20.9026 8.02862 21.6668 8.77269 22.6094 8.77269Z" fill="black" fill-opacity="0.5"/>
<path d="M28.5106 5.42111C28.1441 4.49947 27.5839 3.6625 26.866 2.96378C26.1482 2.26506 25.2884 1.71998 24.3417 1.36344C23.2339 0.958532 22.0635 0.739591 20.8805 0.71594C19.3558 0.65119 18.8728 0.63269 15.0063 0.63269C11.1398 0.63269 10.6443 0.63269 9.13217 0.71594C7.95004 0.738382 6.78054 0.957368 5.67417 1.36344C4.72724 1.71957 3.86722 2.2645 3.14929 2.96327C2.43135 3.66204 1.87137 4.49923 1.50526 5.42111C1.08932 6.49968 0.86498 7.63931 0.84184 8.79119C0.773757 10.2743 0.753174 10.7445 0.753174 14.5108C0.753174 18.2755 0.753174 18.755 0.84184 20.2304C0.86559 21.3835 1.08884 22.5213 1.50526 23.602C1.8724 24.5235 2.43293 25.3604 3.15103 26.0591C3.86914 26.7577 4.72902 27.3029 5.67576 27.6596C6.78003 28.0808 7.95001 28.3154 9.13534 28.3534C10.6601 28.4181 11.143 28.4382 15.0095 28.4382C18.876 28.4382 19.3716 28.4382 20.8837 28.3534C22.0666 28.33 23.2369 28.1116 24.3448 27.7074C25.2913 27.3501 26.1508 26.8045 26.8686 26.1056C27.5864 25.4067 28.1467 24.5698 28.5138 23.6482C28.9302 22.5691 29.1534 21.4313 29.1772 20.2782C29.2453 18.7951 29.2658 18.3249 29.2658 14.5586C29.2658 10.7923 29.2658 10.3144 29.1772 8.83898C29.1587 7.67082 28.9332 6.51453 28.5106 5.42111ZM26.5821 20.1163C26.5719 21.0047 26.4053 21.8849 26.0897 22.7186C25.8519 23.3181 25.4879 23.8625 25.021 24.3168C24.5542 24.7711 23.9949 25.1252 23.379 25.3564C22.5323 25.6623 21.6379 25.8245 20.7348 25.8359C19.2307 25.9037 18.8063 25.9207 14.9493 25.9207C11.0892 25.9207 10.6949 25.9206 9.16226 25.8359C8.25964 25.8251 7.36569 25.6629 6.51967 25.3564C5.90168 25.1267 5.34009 24.7732 4.87125 24.3188C4.40241 23.8644 4.03675 23.3193 3.79792 22.7186C3.48671 21.8939 3.32025 21.0241 3.30551 20.1456C3.23742 18.681 3.22159 18.2678 3.22159 14.5123C3.22159 10.7553 3.22159 10.3714 3.30551 8.87752C3.31574 7.98956 3.48229 7.10988 3.79792 6.27673C4.28084 5.06036 5.27042 4.10298 6.51967 3.6374C7.36611 3.33236 8.2598 3.17022 9.16226 3.15794C10.668 3.09165 11.0908 3.07315 14.9493 3.07315C18.8079 3.07315 19.2038 3.07315 20.7348 3.15794C21.638 3.16852 22.5325 3.33072 23.379 3.6374C23.9948 3.86907 24.5541 4.22354 25.0209 4.67807C25.4877 5.1326 25.8517 5.67713 26.0897 6.27673C26.4009 7.10145 26.5673 7.97127 26.5821 8.84977C26.6502 10.3159 26.6676 10.7275 26.6676 14.4846C26.6676 18.2401 26.6676 18.644 26.5995 20.1178H26.5821V20.1163Z" fill="black" fill-opacity="0.5"/>
</svg>
